<?xml version="1.0" standalone="no"?>
<!DOCTYPE svg PUBLIC "-//W3C//DTD SVG 20010904//EN"
 "http://www.w3.org/TR/2001/REC-SVG-20010904/DTD/svg10.dtd">
<svg version="1.0" xmlns="http://www.w3.org/2000/svg"
 width="1280.000000pt" height="719.000000pt" viewBox="0 0 1280.000000 719.000000"
 preserveAspectRatio="xMidYMid meet">
<metadata>
Created by potrace 1.16, written by Peter Selinger 2001-2019
</metadata>
<g transform="translate(0.000000,719.000000) scale(0.100000,-0.100000)"
fill="#000000" stroke="none">
<path d="M1880 6680 c-536 -31 -882 -173 -1109 -456 -145 -180 -217 -371 -228
-605 -8 -164 13 -287 78 -479 95 -276 101 -299 102 -390 0 -115 -21 -165 -147
-353 -126 -188 -147 -224 -185 -319 -79 -200 -81 -448 -4 -661 53 -150 134
-287 261 -447 88 -111 817 -848 1007 -1019 324 -290 553 -435 830 -524 197
-63 360 -89 770 -122 376 -31 529 -76 744 -219 139 -93 338 -279 817 -762
l320 -324 3142 0 3142 0 0 748 0 747 -71 80 c-247 280 -308 406 -279 581 6 41
31 133 55 204 24 72 50 163 59 203 16 79 29 166 24 168 -2 1 -748 5 -1658 8
-1649 7 -1655 7 -1731 28 -43 12 -110 36 -150 53 -177 75 -160 60 -1114 1010
-545 544 -916 905 -957 934 -90 63 -219 122 -336 153 -97 26 -99 27 -607 33
-474 6 -516 8 -590 28 -124 32 -230 81 -339 155 -68 46 -1501 1458 -1541 1520
l-25 37 -78 -2 c-42 0 -133 -4 -202 -8z"/>
</g>
</svg>
